<mxfile host="app.diagrams.net" modified="2023-12-25T12:06:09.082Z" agent="Mozilla/5.0 (X11; Linux x86_64; rv:121.0) Gecko/20100101 Firefox/121.0" version="22.1.11" etag="jZRv0Xosg2cFO0dP6WKT" type="github">
  <diagram name="Page-1" id="NRJ2blc_Q_m7ArETwhE-">
    <mxGraphModel>
      <root>
        <mxCell id="0" />
        <mxCell id="1" parent="0" />
      </root>
    </mxGraphModel>
  </diagram>
</mxfile>
